<?xml version="1.0" encoding="UTF-8" standalone="no"?><!DOCTYPE svg PUBLIC "-//W3C//DTD SVG 1.1//EN" "http://www.w3.org/Graphics/SVG/1.1/DTD/svg11.dtd"><svg width="100%" height="100%" viewBox="0 0 100 100" version="1.1" xmlns="http://www.w3.org/2000/svg" xmlns:xlink="http://www.w3.org/1999/xlink" xml:space="preserve" xmlns:serif="http://www.serif.com/" style="fill-rule:evenodd;clip-rule:evenodd;stroke-linejoin:round;stroke-miterlimit:2;"><path d="M45.875,24.488l0.192,0.45l3.954,-0.559l3.975,0.563l0.191,-0.45l4.313,-0.763l2.679,2.604l-0.262,-0.254l-0.084,-0.166l0.409,0.483l1.75,1.696l5.596,3.462l3.774,1.613l-0.783,5.046l0.821,-0.346l4.087,-0.063l2.68,3.929l-0.03,0.85l-1.112,5.2l-3.879,1.975l-1.054,0.671l-0.663,0.2l-4.879,0.317l-3.946,-0.554l-3.817,1.741l-2.154,1.967l-0.262,-0.567l1,2.15l1.137,6.929l0.413,5.35l-1.05,1.496l-3.963,0.646l-4.879,0.433l-4.879,-0.433l-3.967,-0.646l-1.05,-1.496l0.417,-5.354l1.133,-6.925l0.725,-1.562l-2.175,-1.988l-3.816,-1.741l-3.955,0.545l-4.891,-0.312l-0.654,-0.2l-1.034,-0.658l-3.912,-1.992l-1.109,-5.2l-0.029,-0.85l2.679,-3.933l4.096,0.066l0.863,0.363l-0.784,-5.063l3.78,-1.612l5.6,-3.463l1.604,-1.554l0.533,-0.621l-0.017,0.117l-0.091,0.092l2.466,-2.392l4.313,0.762Z" style="fill:#959595;fill-rule:nonzero;stroke:#5c5c5c;stroke-width:2.67px;"/><rect id="rect3763" x="67.458" y="64.567" width="11.708" height="11.708" style="fill:#91c5ff;stroke:#005ec8;stroke-width:2.92px;stroke-miterlimit:4;"/><rect id="rect3763-4" x="67.458" y="52.854" width="11.708" height="11.708" style="fill:#91c5ff;stroke:#005ec8;stroke-width:2.92px;stroke-miterlimit:4;"/><rect id="rect3763-0" x="55.746" y="64.567" width="11.708" height="11.708" style="fill:#91c5ff;stroke:#005ec8;stroke-width:2.92px;stroke-miterlimit:4;"/><path d="M58.446,34.146l-0.063,-1.608c0,-0.001 -0.041,-0.001 -0.1,0.008c-0.312,0.037 -1.937,0.283 -3.045,1.85c-0.68,0.962 -1.23,2.504 -0.834,5.017c0.284,1.787 0.846,2.92 1.525,3.712c1,1.167 2.304,1.612 3.742,2.079c1.312,0.425 3.362,0.196 5.042,-0.771c1.762,-1.008 3.075,-2.741 2.941,-5.025c-0.104,-1.854 -1.041,-3.108 -2.487,-4.062c-1.563,-1.029 -3.875,-1.638 -5.959,-2.654l-0.37,1.604c3.287,1.516 7.033,2.075 7.216,5.208c0.188,3.238 -3.933,4.808 -5.887,4.171c-1.909,-0.621 -3.625,-1.021 -4.175,-4.513c-0.696,-4.404 2.008,-4.958 2.454,-5.016Z" style="fill:#5c5c5c;"/><path d="M47.404,63.879c0,0 1.763,0.988 2.629,0.967c0.867,-0.017 2.567,-1.079 2.567,-1.079c0,-0 0.6,1.675 0.083,2.191c-0.52,0.517 -1.545,1.713 -2.65,1.7c-1.079,-0.016 -2.1,-1.27 -2.579,-1.75c-0.479,-0.479 -0.05,-2.029 -0.05,-2.029" style="fill:none;stroke:#5c5c5c;stroke-width:1.33px;stroke-linecap:round;stroke-miterlimit:1.5;"/><g><path d="M47.404,50.65c0,1.517 2.634,3.708 2.634,3.708c-0,0 2.608,-2.183 2.608,-3.687" style="fill:none;stroke:#5c5c5c;stroke-width:1.33px;stroke-linecap:round;stroke-miterlimit:1.5;"/><path d="M47.404,50.65c0,0 0.413,-2.446 2.621,0" style="fill:none;stroke:#5c5c5c;stroke-width:1.33px;stroke-linecap:round;stroke-linejoin:miter;stroke-miterlimit:1.5;"/><path d="M52.646,50.65c-0,0 -0.417,-2.446 -2.646,0" style="fill:none;stroke:#5c5c5c;stroke-width:1.33px;stroke-linecap:round;stroke-linejoin:miter;stroke-miterlimit:1.5;"/></g><path d="M29.1,38.521c0.271,7.029 8.517,13.983 16.183,13.983" style="fill:none;stroke:#5c5c5c;stroke-width:1.58px;stroke-linecap:round;stroke-linejoin:miter;stroke-miterlimit:1.5;"/><path d="M70.979,38.521c-0.266,7.029 -8.65,13.983 -16.316,13.983" style="fill:none;stroke:#5c5c5c;stroke-width:1.58px;stroke-linecap:round;stroke-linejoin:miter;stroke-miterlimit:1.5;"/><path d="M45.954,24.738c0,14.12 8.709,14.8 8.709,0.037" style="fill:none;stroke:#5c5c5c;stroke-width:1.63px;stroke-linecap:round;stroke-linejoin:miter;stroke-miterlimit:1.5;"/><path d="M29.504,41.883c-6.033,-2.687 -7.796,6.904 4.313,6.054" style="fill:none;stroke:#5c5c5c;stroke-width:1.63px;stroke-linecap:round;stroke-linejoin:miter;stroke-miterlimit:1.5;"/><path d="M70.371,41.883c6.033,-2.687 7.796,6.904 -4.313,6.054" style="fill:none;stroke:#5c5c5c;stroke-width:1.63px;stroke-linecap:round;stroke-linejoin:miter;stroke-miterlimit:1.5;"/><path d="M41.388,32.883l-0.042,-0.191c-2.083,1.016 -4.392,1.625 -5.958,2.654c-1.446,0.954 -2.38,2.208 -2.488,4.062c-0.133,2.284 1.179,4.017 2.942,5.025c1.679,0.967 3.729,1.196 5.041,0.771c1.438,-0.466 2.742,-0.912 3.742,-2.079c0.679,-0.792 1.242,-1.925 1.525,-3.712c0.396,-2.513 -0.154,-4.055 -0.833,-5.017c-1.104,-1.567 -2.734,-1.813 -3.042,-1.85c-0.483,-0.058 -0.754,0.083 -0.887,0.337Zm0.662,1.255c0,-0 3.271,0.233 2.513,5.025c-0.55,3.491 -2.267,3.891 -4.175,4.512c-1.955,0.638 -6.075,-0.933 -5.888,-4.171c0.192,-3.237 4.188,-3.729 7.55,-5.366Z" style="fill:#5c5c5c;"/></svg>