<?xml version="1.0" encoding="UTF-8" standalone="no"?><!DOCTYPE svg PUBLIC "-//W3C//DTD SVG 1.1//EN" "http://www.w3.org/Graphics/SVG/1.1/DTD/svg11.dtd"><svg width="100%" height="100%" viewBox="0 0 134 134" version="1.1" xmlns="http://www.w3.org/2000/svg" xmlns:xlink="http://www.w3.org/1999/xlink" xml:space="preserve" xmlns:serif="http://www.serif.com/" style="fill-rule:evenodd;clip-rule:evenodd;stroke-linejoin:round;stroke-miterlimit:2;"><path d="M60.242,31.408l0.3,0.7l6.154,-0.87l6.196,0.879l0.296,-0.704l6.712,-1.188l4.175,4.054l-0.408,-0.396l-0.134,-0.258l0.642,0.75l2.721,2.642l8.712,5.396l5.88,2.508l-1.221,7.854l1.283,-0.533l6.363,-0.1l4.17,6.116l-0.045,1.33l-1.734,8.091l-6.037,3.075l-1.646,1.046l-1.025,0.313l-7.6,0.491l-6.15,-0.858l-5.942,2.712l-3.35,3.055l-0.408,-0.876l1.558,3.346l1.767,10.788l0.642,8.329l-1.634,2.329l-6.171,1.004l-7.595,0.684l-7.6,-0.684l-6.175,-1.004l-1.634,-2.329l0.646,-8.333l1.763,-10.784l1.133,-2.433l-3.388,-3.096l-5.941,-2.717l-6.163,0.859l-7.612,-0.492l-1.017,-0.312l-1.608,-1.025l-6.092,-3.096l-1.729,-8.096l-0.046,-1.329l4.175,-6.121l6.371,0.104l1.346,0.559l-1.217,-7.88l5.883,-2.512l8.721,-5.388l2.496,-2.42l0.829,-0.971l-0.021,0.183l-0.145,0.142l3.841,-3.725l6.713,1.191Z" style="fill:#959595;fill-rule:nonzero;stroke:#5c5c5c;stroke-width:4.17px;"/><rect id="rect3763" x="93.85" y="93.813" width="18.233" height="18.233" style="fill:#91c5ff;stroke:#005ec8;stroke-width:4.54px;stroke-miterlimit:4;"/><rect id="rect3763-4" x="93.85" y="75.579" width="18.233" height="18.233" style="fill:#91c5ff;stroke:#005ec8;stroke-width:4.54px;stroke-miterlimit:4;"/><rect id="rect3763-0" x="75.617" y="93.813" width="18.233" height="18.233" style="fill:#91c5ff;stroke:#005ec8;stroke-width:4.54px;stroke-miterlimit:4;"/><path d="M79.817,46.442l-0.096,-2.504c-0,-0 -0.063,0.004 -0.159,0.016c-0.487,0.059 -3.016,0.446 -4.741,2.884c-1.058,1.5 -1.913,3.9 -1.296,7.812c0.438,2.775 1.317,4.546 2.375,5.779c1.554,1.813 3.592,2.509 5.829,3.234c2.042,0.666 5.234,0.304 7.85,-1.196c2.742,-1.575 4.788,-4.275 4.579,-7.825c-0.166,-2.888 -1.62,-4.842 -3.875,-6.325c-2.437,-1.604 -6.033,-2.55 -9.275,-4.134l-0.579,2.496c5.121,2.358 10.95,3.233 11.234,8.108c0.295,5.042 -6.121,7.488 -9.163,6.5c-2.975,-0.966 -5.646,-1.595 -6.504,-7.029c-1.083,-6.858 3.129,-7.721 3.821,-7.816Z" style="fill:#5c5c5c;"/><path d="M62.625,92.746c0,-0 2.746,1.537 4.092,1.508c1.35,-0.033 4,-1.687 4,-1.687c-0,-0 0.933,2.612 0.125,3.416c-0.804,0.809 -2.404,2.667 -4.125,2.642c-1.675,-0.025 -3.271,-1.975 -4.017,-2.721c-0.746,-0.746 -0.075,-3.158 -0.075,-3.158" style="fill:none;stroke:#5c5c5c;stroke-width:2.08px;stroke-linecap:round;stroke-miterlimit:1.5;"/><g><path d="M62.629,72.146c0,2.358 4.092,5.775 4.092,5.775c-0,-0 4.062,-3.4 4.062,-5.746" style="fill:none;stroke:#5c5c5c;stroke-width:2.08px;stroke-linecap:round;stroke-miterlimit:1.5;"/><path d="M62.629,72.146c0,-0 0.642,-3.808 4.075,-0" style="fill:none;stroke:#5c5c5c;stroke-width:2.08px;stroke-linecap:round;stroke-linejoin:miter;stroke-miterlimit:1.5;"/><path d="M70.783,72.146c0,-0 -0.645,-3.808 -4.116,-0" style="fill:none;stroke:#5c5c5c;stroke-width:2.08px;stroke-linecap:round;stroke-linejoin:miter;stroke-miterlimit:1.5;"/></g><path d="M34.125,53.258c0.421,10.946 13.263,21.775 25.2,21.775" style="fill:none;stroke:#5c5c5c;stroke-width:2.46px;stroke-linecap:round;stroke-linejoin:miter;stroke-miterlimit:1.5;"/><path d="M99.333,53.258c-0.416,10.946 -13.466,21.775 -25.404,21.775" style="fill:none;stroke:#5c5c5c;stroke-width:2.46px;stroke-linecap:round;stroke-linejoin:miter;stroke-miterlimit:1.5;"/><path d="M60.363,31.796c-0,21.987 13.566,23.046 13.566,0.058" style="fill:none;stroke:#5c5c5c;stroke-width:2.5px;stroke-linecap:round;stroke-linejoin:miter;stroke-miterlimit:1.5;"/><path d="M34.754,58.496c-9.396,-4.188 -12.141,10.746 6.713,9.421" style="fill:none;stroke:#5c5c5c;stroke-width:2.5px;stroke-linecap:round;stroke-linejoin:miter;stroke-miterlimit:1.5;"/><path d="M98.388,58.496c9.391,-4.188 12.141,10.746 -6.713,9.421" style="fill:none;stroke:#5c5c5c;stroke-width:2.5px;stroke-linecap:round;stroke-linejoin:miter;stroke-miterlimit:1.5;"/><path d="M53.258,44.479l-0.066,-0.296c-3.242,1.584 -6.842,2.53 -9.279,4.134c-2.251,1.483 -3.709,3.437 -3.875,6.325c-0.205,3.55 1.841,6.25 4.583,7.825c2.612,1.5 5.808,1.862 7.85,1.196c2.237,-0.725 4.271,-1.421 5.825,-3.234c1.058,-1.233 1.937,-3.004 2.375,-5.779c0.617,-3.912 -0.238,-6.313 -1.296,-7.812c-1.721,-2.438 -4.254,-2.826 -4.742,-2.884c-0.75,-0.092 -1.171,0.133 -1.375,0.525Zm1.029,1.95c0,0 5.092,0.367 3.917,7.829c-0.858,5.434 -3.533,6.063 -6.508,7.029c-3.042,0.988 -9.454,-1.458 -9.163,-6.5c0.292,-5.041 6.521,-5.804 11.755,-8.358Z" style="fill:#5c5c5c;"/></svg>