<?xml version="1.0" encoding="UTF-8" standalone="no"?>
<!DOCTYPE svg PUBLIC "-//W3C//DTD SVG 1.1//EN" "http://www.w3.org/Graphics/SVG/1.1/DTD/svg11.dtd">
<svg width="100%" height="100%" viewBox="0 0 32 32" version="1.1" xmlns="http://www.w3.org/2000/svg" xmlns:xlink="http://www.w3.org/1999/xlink" xml:space="preserve" xmlns:serif="http://www.serif.com/" style="fill-rule:evenodd;clip-rule:evenodd;stroke-linecap:round;stroke-miterlimit:1.5;">
    <g transform="matrix(1,0,0,1,0,-74)">
        <g id="BuildCorners_24" transform="matrix(1,0,0,1,0,74)">
            <rect x="0" y="0" width="32" height="32" style="fill:none;"/>
            <g transform="matrix(1.1,0,0,1.22222,-1.6,-94)">
                <rect x="6" y="81" width="20" height="18" style="fill:rgb(235,235,235);"/>
            </g>
            <g transform="matrix(1.13636,0,0,1.13636,-2.68182,-84.6364)">
                <rect x="16" y="78" width="11" height="11" style="fill:rgb(145,197,255);"/>
            </g>
            <g transform="matrix(1.15,0,0,1.27778,-2.4,-99)">
                <rect x="6" y="81" width="20" height="18" style="fill:none;stroke:rgb(92,92,92);stroke-width:0.82px;"/>
            </g>
            <g transform="matrix(0.916667,0,0,1,1.33333,-74)">
                <path d="M4,90L28,90" style="fill:none;stroke:rgb(92,92,92);stroke-width:1.04px;stroke-linejoin:round;"/>
            </g>
            <g transform="matrix(1,0,0,0.916667,0,-66.5)">
                <path d="M16,78L16,102" style="fill:none;stroke:rgb(92,92,92);stroke-width:1.04px;stroke-linejoin:round;"/>
            </g>
            <g transform="matrix(0.916667,0,0,1,1.33333,-74)">
                <path d="M4,84L16,84" style="fill:none;stroke:rgb(92,92,92);stroke-width:1.04px;stroke-linejoin:round;"/>
            </g>
            <g transform="matrix(1,0,0,0.916667,0,-66.5)">
                <path d="M22,90L22,102" style="fill:none;stroke:rgb(92,92,92);stroke-width:1.04px;stroke-linejoin:round;"/>
            </g>
            <g transform="matrix(1.04545,0,0,1.04545,-0.727273,-77.0455)">
                <rect x="16" y="78" width="11" height="11" style="fill:none;stroke:rgb(25,133,255);stroke-width:0.96px;stroke-linecap:butt;stroke-miterlimit:2;"/>
            </g>
            <g transform="matrix(1,0,0,1,0,-74)">
                <path d="M16,84L22,84L22,90" style="fill:none;stroke:rgb(25,133,255);stroke-width:1px;"/>
            </g>
            <g transform="matrix(0.916667,0.0833333,0.0833333,0.916667,-5.16667,-68.8333)">
                <path d="M28,78L22,84" style="fill:none;stroke:rgb(25,133,255);stroke-width:1px;"/>
            </g>
        </g>
    </g>
</svg>
