<?xml version="1.0" encoding="UTF-8" standalone="no"?>
<!DOCTYPE svg PUBLIC "-//W3C//DTD SVG 1.1//EN" "http://www.w3.org/Graphics/SVG/1.1/DTD/svg11.dtd">
<svg width="100%" height="100%" viewBox="0 0 32 32" version="1.1" xmlns="http://www.w3.org/2000/svg" xmlns:xlink="http://www.w3.org/1999/xlink" xml:space="preserve" xmlns:serif="http://www.serif.com/" style="fill-rule:evenodd;clip-rule:evenodd;stroke-miterlimit:1.5;">
    <g transform="matrix(1,0,0,1,0,-182)">
        <g id="ConvertToQuads_24" transform="matrix(1,0,0,1,0,182)">
            <rect x="0" y="0" width="32" height="32" style="fill:none;"/>
            <g transform="matrix(0.985657,0,0,0.99713,0.583798,-0.45598)">
                <rect x="4.48" y="5.472" width="22.32" height="22.063" style="fill:rgb(235,235,235);"/>
            </g>
            <g transform="matrix(0.282673,0,0,0.283556,-14.9391,9.00175)">
                <rect x="67" y="22.917" width="44.221" height="44.083" style="fill:rgb(145,197,255);"/>
            </g>
            <g transform="matrix(1,0,0,1,0,-182)">
                <path d="M4.5,186.5L27.5,209.5L4.5,186.5Z" style="fill:none;stroke:rgb(92,92,92);stroke-width:1px;"/>
            </g>
            <g transform="matrix(1,0,0,1,0,-182)">
                <path d="M16,186.5L27.5,198L16,186.5Z" style="fill:none;stroke:rgb(92,92,92);stroke-width:1px;"/>
            </g>
            <g transform="matrix(1.03046,0,0,1.04245,-0.116938,-1.20398)">
                <rect x="4.48" y="5.472" width="22.32" height="22.063" style="fill:none;stroke:rgb(92,92,92);stroke-width:0.96px;"/>
            </g>
            <g transform="matrix(0.51523,0,0,0.521227,13.6915,1.64801)">
                <rect x="4.48" y="5.472" width="22.32" height="22.063" style="fill:none;stroke:rgb(92,92,92);stroke-width:1.93px;"/>
            </g>
            <g transform="matrix(0.260059,0,0,0.260872,-12.924,10.0216)">
                <rect x="67" y="22.917" width="44.221" height="44.083" style="fill:none;stroke:rgb(25,133,255);stroke-width:3.84px;"/>
            </g>
        </g>
    </g>
</svg>
