<?xml version="1.0" encoding="UTF-8" standalone="no"?>
<!DOCTYPE svg PUBLIC "-//W3C//DTD SVG 1.1//EN" "http://www.w3.org/Graphics/SVG/1.1/DTD/svg11.dtd">
<svg width="100%" height="100%" viewBox="0 0 24 24" version="1.1" xmlns="http://www.w3.org/2000/svg" xmlns:xlink="http://www.w3.org/1999/xlink" xml:space="preserve" xmlns:serif="http://www.serif.com/" style="fill-rule:evenodd;clip-rule:evenodd;stroke-miterlimit:2;">
    <g transform="matrix(1,0,0,1,-36,-254)">
        <g id="FlipEdge_16" transform="matrix(0.75,0,0,0.75,36,254)">
            <rect x="0" y="0" width="32" height="32" style="fill:none;"/>
            <g transform="matrix(0.198095,0,0,0.198095,2.12692,2.12692)">
                <rect x="22.917" y="22.917" width="87.5" height="87.5" style="fill:rgb(235,235,235);"/>
            </g>
            <g transform="matrix(-1.10259e-15,-1.33333,1.33333,-1.10259e-15,-336,334.667)">
                <path d="M233,257L246,270" style="fill:none;stroke:rgb(92,92,92);stroke-width:1px;stroke-dasharray:1,1.5,0,0;stroke-dashoffset:1.31;"/>
            </g>
            <g transform="matrix(1.33333,0,0,1.33333,-304,-336)">
                <path d="M233,257L246,270" style="fill:none;stroke:rgb(25,133,255);stroke-width:1px;"/>
            </g>
            <g transform="matrix(0.213333,0,0,0.213333,1.11104,1.11104)">
                <rect x="22.917" y="22.917" width="87.5" height="87.5" style="fill:none;stroke:rgb(92,92,92);stroke-width:5.83px;stroke-miterlimit:1.5;"/>
            </g>
        </g>
    </g>
</svg>
