<?xml version="1.0" encoding="UTF-8" standalone="no"?>
<!DOCTYPE svg PUBLIC "-//W3C//DTD SVG 1.1//EN" "http://www.w3.org/Graphics/SVG/1.1/DTD/svg11.dtd">
<svg width="100%" height="100%" viewBox="0 0 32 32" version="1.1" xmlns="http://www.w3.org/2000/svg" xmlns:xlink="http://www.w3.org/1999/xlink" xml:space="preserve" xmlns:serif="http://www.serif.com/" style="fill-rule:evenodd;clip-rule:evenodd;stroke-linejoin:round;">
    <g transform="matrix(1,0,0,1,-96,-146)">
        <g id="OffsetLoop_24" transform="matrix(1,0,0,1,96,146)">
            <rect x="0" y="0" width="32" height="32" style="fill:none;"/>
            <g id="path3799" transform="matrix(1,0,0,1,3.5,13)">
                <path d="M12.5,0L12.5,5" style="fill:none;fill-rule:nonzero;stroke:rgb(25,133,255);stroke-width:2px;"/>
            </g>
            <g id="path3801" transform="matrix(1.42857,0,0,1,-1.85714,12)">
                <path d="M9,4L16,4L12.5,8L9,4Z" style="fill:rgb(25,133,255);fill-rule:nonzero;"/>
            </g>
            <g id="rect3784" transform="matrix(1.09091,0,0,1,2.90909,21)">
                <rect x="1" y="2" width="22" height="3" style="fill:rgb(235,235,235);"/>
            </g>
            <g id="path2994-1" transform="matrix(1.09091,0,0,0.990909,2.90909,22.0409)">
                <path d="M1,4.5L23,4.5" style="fill:none;fill-rule:nonzero;stroke:rgb(56,138,46);stroke-width:0.96px;stroke-linejoin:miter;"/>
            </g>
            <g id="path2994-11" serif:id="path2994-1" transform="matrix(1.09091,0,0,0.990909,2.90909,18.0409)">
                <path d="M1,4.5L23,4.5" style="fill:none;fill-rule:nonzero;stroke:rgb(56,138,46);stroke-width:0.96px;stroke-linejoin:miter;"/>
            </g>
            <g transform="matrix(1,0,0,0.8,-96,-111.9)">
                <rect x="107.5" y="168" width="9" height="5" style="fill:none;stroke:rgb(56,138,46);stroke-width:1.1px;stroke-linejoin:miter;stroke-miterlimit:2;"/>
            </g>
            <g id="rect37841" serif:id="rect3784" transform="matrix(1.09091,0,0,1,2.90909,4)">
                <rect x="1" y="2" width="22" height="3" style="fill:rgb(235,235,235);"/>
            </g>
            <g transform="matrix(1.125,0,0,1,-110,-179.5)">
                <rect x="108" y="185" width="8" height="4" style="fill:none;stroke:rgb(92,92,92);stroke-width:0.94px;stroke-linejoin:miter;stroke-miterlimit:2;"/>
            </g>
            <g id="path2994-12" serif:id="path2994-1" transform="matrix(1.09091,0,0,0.990909,2.90909,5.04091)">
                <path d="M1,4.5L23,4.5" style="fill:none;fill-rule:nonzero;stroke:rgb(92,92,92);stroke-width:0.96px;stroke-linejoin:miter;"/>
            </g>
            <g id="path2994-13" serif:id="path2994-1" transform="matrix(1.09091,0,0,0.990909,2.90909,1.04091)">
                <path d="M1,4.5L23,4.5" style="fill:none;fill-rule:nonzero;stroke:rgb(92,92,92);stroke-width:0.96px;stroke-linejoin:miter;"/>
            </g>
        </g>
    </g>
</svg>
