<?xml version="1.0" encoding="UTF-8" standalone="no"?>
<!DOCTYPE svg PUBLIC "-//W3C//DTD SVG 1.1//EN" "http://www.w3.org/Graphics/SVG/1.1/DTD/svg11.dtd">
<svg width="100%" height="100%" viewBox="0 0 32 32" version="1.1" xmlns="http://www.w3.org/2000/svg" xmlns:xlink="http://www.w3.org/1999/xlink" xml:space="preserve" xmlns:serif="http://www.serif.com/" style="fill-rule:evenodd;clip-rule:evenodd;stroke-linejoin:round;stroke-miterlimit:1.5;">
    <g transform="matrix(1,0,0,1,-96,-182)">
        <g id="RemoveLoop_24" transform="matrix(1,0,0,1,96,182)">
            <rect x="0" y="0" width="32" height="32" style="fill:none;"/>
            <g transform="matrix(1.13235,0,0,1.13235,-111.631,-167.82)">
                <path d="M115.363,161.453L122.428,168.518" style="fill:none;stroke:rgb(239,21,21);stroke-width:2px;"/>
            </g>
            <g transform="matrix(1.13235,0,0,1.13235,-111.631,-167.82)">
                <path d="M115.363,168.518L122.357,161.523" style="fill:none;stroke:rgb(239,21,21);stroke-width:2px;"/>
            </g>
            <g id="rect3784" transform="matrix(1.09091,0,0,1,2.90909,4)">
                <rect x="1" y="2" width="22" height="3" style="fill:rgb(235,235,235);"/>
            </g>
            <g transform="matrix(1.125,0,0,1,-110,-179.5)">
                <rect x="108" y="185" width="8" height="4" style="fill:none;stroke:rgb(92,92,92);stroke-width:0.94px;stroke-linejoin:miter;stroke-miterlimit:2;"/>
            </g>
            <g id="path2994-1" transform="matrix(1.09091,0,0,0.990909,2.90909,5.04091)">
                <path d="M1,4.5L23,4.5" style="fill:none;fill-rule:nonzero;stroke:rgb(92,92,92);stroke-width:0.96px;stroke-linejoin:miter;stroke-miterlimit:4;"/>
            </g>
            <g id="path2994-11" serif:id="path2994-1" transform="matrix(1.09091,0,0,0.990909,2.90909,1.04091)">
                <path d="M1,4.5L23,4.5" style="fill:none;fill-rule:nonzero;stroke:rgb(92,92,92);stroke-width:0.96px;stroke-linejoin:miter;stroke-miterlimit:4;"/>
            </g>
        </g>
    </g>
</svg>
