<?xml version="1.0" encoding="UTF-8" standalone="no"?><!DOCTYPE svg PUBLIC "-//W3C//DTD SVG 1.1//EN" "http://www.w3.org/Graphics/SVG/1.1/DTD/svg11.dtd"><svg width="100%" height="100%" viewBox="0 0 24 24" version="1.1" xmlns="http://www.w3.org/2000/svg" xmlns:xlink="http://www.w3.org/1999/xlink" xml:space="preserve" xmlns:serif="http://www.serif.com/" style="fill-rule:evenodd;clip-rule:evenodd;stroke-linecap:round;stroke-linejoin:round;stroke-miterlimit:1.5;"><rect id="SandboxToQuads_16" x="0" y="0" width="24" height="24" style="fill:none;"/><path d="M5,7.869l9.35,-2.863l4.035,9.967l-13.069,3.449l-0.316,-10.553Z" style="fill:#c5ab85;"/><path d="M5,7.869l9.35,-2.863l4.035,9.967l-13.069,3.449l-0.316,-10.553Z" style="fill:none;stroke:#5c5c5c;stroke-width:0.6px;"/><path d="M7.894,6.992l1.775,10.276" style="fill:none;stroke:#5c5c5c;stroke-width:0.56px;"/><path d="M10.937,6.051l3.156,10.056" style="fill:none;stroke:#5c5c5c;stroke-width:0.56px;"/><path d="M5.184,14.429l11.522,-3.605" style="fill:none;stroke:#5c5c5c;stroke-width:0.56px;"/><path d="M5.095,10.871l10.32,-3.229" style="fill:none;stroke:#5c5c5c;stroke-width:0.56px;"/><path d="M14.362,5.006l-9.046,13.416" style="fill:none;stroke:#5c5c5c;stroke-width:0.56px;"/><path d="M15.415,7.642l-5.746,9.626" style="fill:none;stroke:#5c5c5c;stroke-width:0.56px;"/><path d="M16.706,10.824l-2.613,5.283" style="fill:none;stroke:#5c5c5c;stroke-width:0.56px;"/><path d="M10.937,6.051l-5.753,8.378" style="fill:none;stroke:#5c5c5c;stroke-width:0.56px;"/><path d="M7.894,6.992l-2.799,3.879" style="fill:none;stroke:#5c5c5c;stroke-width:0.56px;"/><rect id="rect3763" x="16.19" y="16.184" width="2.81" height="2.81" style="fill:#91c5ff;stroke:#005ec8;stroke-width:0.7px;stroke-linecap:butt;stroke-miterlimit:4;"/><rect id="rect3763-4" x="16.19" y="13.374" width="2.81" height="2.81" style="fill:#91c5ff;stroke:#005ec8;stroke-width:0.7px;stroke-linecap:butt;stroke-miterlimit:4;"/><rect id="rect3763-0" x="13.379" y="16.184" width="2.81" height="2.81" style="fill:#91c5ff;stroke:#005ec8;stroke-width:0.7px;stroke-linecap:butt;stroke-miterlimit:4;"/></svg>