<?xml version="1.0" encoding="UTF-8" standalone="no"?>
<!DOCTYPE svg PUBLIC "-//W3C//DTD SVG 1.1//EN" "http://www.w3.org/Graphics/SVG/1.1/DTD/svg11.dtd">
<svg width="100%" height="100%" viewBox="0 0 24 24" version="1.1" xmlns="http://www.w3.org/2000/svg" xmlns:xlink="http://www.w3.org/1999/xlink" xml:space="preserve" xmlns:serif="http://www.serif.com/" style="fill-rule:evenodd;clip-rule:evenodd;stroke-linecap:round;stroke-miterlimit:1.5;">
    <g transform="matrix(1,0,0,1,-228,-108)">
        <g id="SelectRing_16" transform="matrix(0.75,0,0,0.75,228,108)">
            <rect x="0" y="0" width="32" height="32" style="fill:none;"/>
            <g transform="matrix(0.868868,0,0,0.481356,-164.862,-37.487)">
                <rect x="197.416" y="122.197" width="21.484" height="2.77" style="fill:rgb(235,235,235);"/>
            </g>
            <g transform="matrix(0.868868,0,0,0.481356,-164.862,-44.1537)">
                <rect x="197.416" y="122.197" width="21.484" height="2.77" style="fill:rgb(235,235,235);"/>
            </g>
            <g transform="matrix(0.868868,0,0,0.481356,-164.862,-50.8203)">
                <rect x="197.416" y="122.197" width="21.484" height="2.77" style="fill:rgb(235,235,235);"/>
            </g>
            <g transform="matrix(0.93093,0,0,0.962711,-177.781,-96.974)">
                <rect x="197.416" y="122.197" width="21.484" height="2.77" style="fill:rgb(235,235,235);stroke:rgb(56,138,46);stroke-width:1.41px;"/>
            </g>
            <g transform="matrix(0.93093,0,0,0.962711,-177.781,-103.641)">
                <rect x="197.416" y="122.197" width="21.484" height="2.77" style="fill:rgb(235,235,235);stroke:rgb(56,138,46);stroke-width:1.41px;"/>
            </g>
            <g transform="matrix(0.93093,0,0,0.962711,-177.781,-110.307)">
                <rect x="197.416" y="122.197" width="21.484" height="2.77" style="fill:rgb(235,235,235);stroke:rgb(56,138,46);stroke-width:1.41px;"/>
            </g>
        </g>
    </g>
</svg>
