<?xml version="1.0" encoding="UTF-8" standalone="no"?><!DOCTYPE svg PUBLIC "-//W3C//DTD SVG 1.1//EN" "http://www.w3.org/Graphics/SVG/1.1/DTD/svg11.dtd"><svg width="100%" height="100%" viewBox="0 0 24 24" version="1.1" xmlns="http://www.w3.org/2000/svg" xmlns:xlink="http://www.w3.org/1999/xlink" xml:space="preserve" xmlns:serif="http://www.serif.com/" style="fill-rule:evenodd;clip-rule:evenodd;stroke-linejoin:round;stroke-miterlimit:1.5;"><rect id="UV_Copy_16" x="0" y="0" width="24" height="24" style="fill:none;"/><g><g><path d="M12.401,7.456l-2.268,-2.268l-4.722,-0l0,9.786l6.99,-0l0,-7.518Z" style="fill:#fff;"/><path d="M12.961,7.456c-0,-0.148 -0.059,-0.29 -0.164,-0.395l-2.269,-2.269c-0.105,-0.104 -0.247,-0.163 -0.395,-0.163l-4.722,-0c-0.309,-0 -0.559,0.25 -0.559,0.559l0,9.786c0,0.309 0.25,0.559 0.559,0.559l6.99,0c0.309,0 0.56,-0.25 0.56,-0.559l-0,-7.518Zm-0.56,0l-2.268,-2.268l-4.722,-0l0,9.786l6.99,-0l0,-7.518Z" style="fill:#bfbfbf;"/><path d="M10.097,5l0,2.506l2.701,0" style="fill:none;stroke:#bfbfbf;stroke-width:0.56px;"/></g><path d="M9.105,11.123l-0,2.097l2.097,0l-0,-2.097l-2.097,0Z" style="fill:#939393;"/><path d="M7.008,9.026l-0,2.097l2.097,0l-0,-2.097l-2.097,0Z" style="fill:#939393;"/></g><g><g><path d="M18.192,11.482l-2.269,-2.268l-4.721,-0l-0,9.786l6.99,0l-0,-7.518Z" style="fill:#fff;"/><path d="M18.751,11.482c0,-0.148 -0.059,-0.29 -0.164,-0.395l-2.268,-2.269c-0.105,-0.104 -0.247,-0.163 -0.396,-0.163l-4.721,-0c-0.309,-0 -0.559,0.25 -0.559,0.559l-0,9.786c-0,0.309 0.25,0.559 0.559,0.559l6.99,0c0.309,0 0.559,-0.25 0.559,-0.559l0,-7.518Zm-0.559,0l-2.269,-2.268l-4.721,-0l-0,9.786l6.99,0l-0,-7.518Z" style="fill:#bfbfbf;"/><path d="M16.048,9.026l0,2.536l2.541,0" style="fill:none;stroke:#bfbfbf;stroke-width:0.56px;"/></g><path d="M14.895,15.149l0,2.097l2.097,0l0,-2.097l-2.097,0Z" style="fill:#373737;"/><path d="M12.798,13.052l0,2.097l2.097,0l0,-2.097l-2.097,0Z" style="fill:#373737;"/></g></svg>