<?xml version="1.0" encoding="UTF-8" standalone="no"?><!DOCTYPE svg PUBLIC "-//W3C//DTD SVG 1.1//EN" "http://www.w3.org/Graphics/SVG/1.1/DTD/svg11.dtd"><svg width="100%" height="100%" viewBox="0 0 32 32" version="1.1" xmlns="http://www.w3.org/2000/svg" xmlns:xlink="http://www.w3.org/1999/xlink" xml:space="preserve" xmlns:serif="http://www.serif.com/" style="fill-rule:evenodd;clip-rule:evenodd;stroke-linejoin:round;stroke-miterlimit:1.5;"><rect id="UV_Copy_24" x="0" y="0" width="32" height="32" style="fill:none;"/><g><g><path d="M17.625,7.675l-2.269,-2.268l-8.616,-0l0,15.238l10.885,0l-0,-12.97Z" style="fill:#fff;"/><path d="M18.496,7.675c-0,-0.231 -0.092,-0.452 -0.255,-0.616l-2.269,-2.268c-0.163,-0.163 -0.385,-0.255 -0.616,-0.255l-8.616,-0c-0.481,-0 -0.87,0.39 -0.87,0.871l-0,15.238c-0,0.481 0.389,0.871 0.87,0.871l10.885,-0c0.481,-0 0.871,-0.39 0.871,-0.871l-0,-12.97Zm-0.871,0l-2.269,-2.268l-8.616,-0l0,15.238l10.885,0l-0,-12.97Z" style="fill:#bfbfbf;"/><path d="M15.227,5.114l-0,2.713l3.016,-0" style="fill:none;stroke:#bfbfbf;stroke-width:0.87px;"/></g><path d="M12.492,14.649l-0,3.265l3.265,0l0,-3.265l-3.265,-0Z" style="fill:#939393;"/><path d="M9.226,11.383l0,3.266l3.266,-0l-0,-3.266l-3.266,0Z" style="fill:#939393;"/></g><g><g><path d="M26.642,13.944l-2.269,-2.268l-8.616,-0l0,15.238l10.885,0l-0,-12.97Z" style="fill:#fff;"/><path d="M27.512,13.944c0,-0.231 -0.091,-0.452 -0.255,-0.616l-2.268,-2.268c-0.163,-0.163 -0.385,-0.255 -0.616,-0.255l-8.616,0c-0.481,0 -0.871,0.39 -0.871,0.871l0,15.238c0,0.481 0.39,0.871 0.871,0.871l10.885,-0c0.481,-0 0.87,-0.39 0.87,-0.871l0,-12.97Zm-0.87,0l-2.269,-2.268l-8.616,-0l0,15.238l10.885,0l-0,-12.97Z" style="fill:#bfbfbf;"/><path d="M24.244,11.383l-0,2.713l3.016,-0" style="fill:none;stroke:#bfbfbf;stroke-width:0.87px;"/></g><path d="M21.508,20.918l0,3.265l3.266,0l-0,-3.265l-3.266,-0Z" style="fill:#373737;"/><path d="M18.243,17.653l-0,3.265l3.265,-0l0,-3.265l-3.265,-0Z" style="fill:#373737;"/></g></svg>