<?xml version="1.0" encoding="UTF-8" standalone="no"?><!DOCTYPE svg PUBLIC "-//W3C//DTD SVG 1.1//EN" "http://www.w3.org/Graphics/SVG/1.1/DTD/svg11.dtd"><svg width="100%" height="100%" viewBox="0 0 32 32" version="1.1" xmlns="http://www.w3.org/2000/svg" xmlns:xlink="http://www.w3.org/1999/xlink" xml:space="preserve" xmlns:serif="http://www.serif.com/" style="fill-rule:evenodd;clip-rule:evenodd;stroke-linecap:square;stroke-miterlimit:1.5;"><rect id="UV_Paste_24" x="0" y="0" width="32" height="32" style="fill:none;"/><path d="M23.338,6.662l-0.836,-0.836l-8.781,0l-0.836,0.836l-0,10.676l0.836,0.836l8.781,-0l0.836,-0.836l0,-10.676Z" style="fill:#d8a458;"/><path d="M24.338,17.752l0,-11.504l-1.422,-1.422l-9.609,0l-1.422,1.422l-0,11.504l1.422,1.422l9.609,-0l1.422,-1.422Zm-1,-11.09l-0.836,-0.836l-8.781,0l-0.836,0.836l-0,10.676l0.836,0.836l8.781,-0l0.836,-0.836l0,-10.676Z" style="fill:#986320;"/><path d="M5.905,7.269l1.521,4.708l1.539,-4.775" style="fill:none;stroke:#000;stroke-width:1.2px;"/><path d="M13.245,26.231l3.6,-1.8l-3.6,-1.8c0.9,0.9 0.9,2.7 -0,3.6Z"/><path d="M5.801,18.585l1.8,-3.6l1.8,3.6c-0.9,-0.9 -2.7,-0.9 -3.6,0Z"/><path d="M13.965,24.431l-6.364,0l-0,-6.566" style="fill:none;stroke:#000;stroke-width:1.2px;"/><g><g><path d="M26.863,11.568l-2.269,-2.269l-4.721,0l-0,9.786l6.99,0l-0,-7.517Z" style="fill:#fff;"/><path d="M27.422,11.568c-0,-0.149 -0.059,-0.291 -0.164,-0.396l-2.268,-2.268c-0.105,-0.105 -0.247,-0.164 -0.396,-0.164l-4.721,-0c-0.309,-0 -0.56,0.25 -0.56,0.559l0,9.786c0,0.309 0.251,0.56 0.56,0.56l6.99,-0c0.309,-0 0.559,-0.251 0.559,-0.56l-0,-7.517Zm-0.559,-0l-2.269,-2.269l-4.721,0l-0,9.786l6.99,0l-0,-7.517Z" style="fill:#bfbfbf;"/><path d="M24.719,9.111l0,2.537l2.541,-0" style="fill:none;stroke:#bfbfbf;stroke-width:0.56px;stroke-linecap:butt;stroke-linejoin:round;"/></g><rect x="21.469" y="15.234" width="2.097" height="2.097" style="fill:#373737;"/><rect x="23.566" y="13.137" width="2.097" height="2.097" style="fill:#373737;"/></g><path d="M20.507,22.291l-0,3.247c-0,1.938 3.059,1.959 3.059,-0l0,-3.314" style="fill:none;stroke:#000;stroke-width:1.2px;"/><rect x="15.777" y="4.308" width="4.67" height="2.039" style="fill:#f3db80;"/><path d="M21.446,7.347l0,-4.039l-6.669,-0l-0,4.039l6.669,-0Zm-1,-3.039l-4.669,-0l-0,2.039l4.669,-0l0,-2.039Z" style="fill:#986320;"/></svg>