<?xml version="1.0" encoding="UTF-8" standalone="no"?><!DOCTYPE svg PUBLIC "-//W3C//DTD SVG 1.1//EN" "http://www.w3.org/Graphics/SVG/1.1/DTD/svg11.dtd"><svg width="100%" height="100%" viewBox="0 0 24 24" version="1.1" xmlns="http://www.w3.org/2000/svg" xmlns:xlink="http://www.w3.org/1999/xlink" xml:space="preserve" xmlns:serif="http://www.serif.com/" style="fill-rule:evenodd;clip-rule:evenodd;stroke-linejoin:round;stroke-miterlimit:1.5;"><rect id="UV_Paste_16" x="0" y="0" width="24" height="24" style="fill:none;"/><path d="M15.094,7.231l-0.792,-0.792l-8.319,-0l-0.792,0.792l-0,10.113l0.792,0.792l8.319,0l0.792,-0.792l0,-10.113Z" style="fill:#d8a458;"/><path d="M16.041,17.737l0,-10.899l-1.347,-1.347l-9.103,0l-1.348,1.347l0,10.899l1.348,1.347l9.103,-0l1.347,-1.347Zm-0.947,-10.506l-0.792,-0.792l-8.319,-0l-0.792,0.792l-0,10.113l0.792,0.792l8.319,0l0.792,-0.792l0,-10.113Z" style="fill:#986320;"/><g><g><path d="M18.433,11.997l-2.268,-2.268l-4.354,-0l-0,9.271l6.622,0l0,-7.003Z" style="fill:#fff;"/><path d="M18.963,11.997c0,-0.14 -0.056,-0.275 -0.155,-0.374l-2.269,-2.269c-0.099,-0.099 -0.234,-0.155 -0.374,-0.155l-4.354,-0c-0.293,-0 -0.53,0.237 -0.53,0.53l0,9.271c0,0.293 0.237,0.53 0.53,0.53l6.622,-0c0.293,-0 0.53,-0.237 0.53,-0.53l0,-7.003Zm-0.53,0l-2.268,-2.268l-4.354,-0l-0,9.271l6.622,-0l0,-7.003Z" style="fill:#bfbfbf;"/><path d="M16.403,9.551l-0,2.403l2.406,-0" style="fill:none;stroke:#bfbfbf;stroke-width:0.56px;"/></g><rect x="13.323" y="15.352" width="1.987" height="1.987" style="fill:#373737;"/><rect x="15.31" y="13.365" width="1.987" height="1.987" style="fill:#373737;"/></g><rect x="7.93" y="5" width="4.424" height="1.932" style="fill:#f3db80;"/><path d="M13.354,7.932l0,-3.932l-6.424,0l0,3.932l6.424,-0Zm-1,-2.932l-4.424,0l0,1.932l4.424,-0l0,-1.932Z" style="fill:#986320;"/></svg>