<?xml version="1.0" encoding="UTF-8" standalone="no"?><!DOCTYPE svg PUBLIC "-//W3C//DTD SVG 1.1//EN" "http://www.w3.org/Graphics/SVG/1.1/DTD/svg11.dtd"><svg width="100%" height="100%" viewBox="0 0 24 24" version="1.1" xmlns="http://www.w3.org/2000/svg" xmlns:xlink="http://www.w3.org/1999/xlink" xml:space="preserve" xmlns:serif="http://www.serif.com/" style="fill-rule:evenodd;clip-rule:evenodd;"><rect id="UV_Unwrap_16" x="0" y="0" width="24" height="24" style="fill:none;"/><rect id="rect3763-7-0-1" x="5.324" y="11.027" width="3.244" height="3.244" style="fill:#fff;stroke:#1986ff;stroke-width:0.65px;"/><path id="path3829" d="M12.91,7.645c1.567,-2.104 3.733,-2.172 4.417,1.111" style="fill:none;fill-rule:nonzero;stroke:#3c3c3c;stroke-width:0.65px;"/><path id="path7285" d="M17.691,9.858l1.285,-2.386c0.37,-0.042 -3.58,1.375 -3.58,1.375l2.295,1.011Z" style="fill:#3c3c3c;fill-rule:nonzero;"/><rect id="rect3763-7-0-1-1" x="8.568" y="11.027" width="3.244" height="3.244" style="fill:#fff;stroke:#1986ff;stroke-width:0.65px;"/><rect id="rect3763-7-0-1-7" x="11.812" y="11.027" width="3.244" height="3.244" style="fill:#fff;stroke:#1986ff;stroke-width:0.65px;"/><rect id="rect3763-7-0-1-19" x="15.056" y="11.027" width="3.244" height="3.244" style="fill:#fff;stroke:#1986ff;stroke-width:0.65px;"/><rect id="rect3763-7-0-1-1-3" x="8.568" y="14.27" width="3.244" height="3.244" style="fill:#fff;stroke:#1986ff;stroke-width:0.65px;"/><rect id="rect3763-7-0-1-1-2" x="8.568" y="7.783" width="3.244" height="3.244" style="fill:#fff;stroke:#1986ff;stroke-width:0.65px;"/><rect id="rect3763-1-4-0-3" x="5" y="12.648" width="1.946" height="1.946" style="fill:#1984ff;fill-opacity:0.78;"/><rect id="rect3763-1-4-0-3-6" x="6.946" y="10.702" width="1.946" height="1.946" style="fill:#1984ff;fill-opacity:0.78;"/><rect id="rect3763-1-4-0-3-9" x="8.244" y="12.648" width="1.946" height="1.946" style="fill:#1984ff;fill-opacity:0.78;"/><rect id="rect3763-1-4-0-3-6-0" x="10.19" y="10.702" width="1.946" height="1.946" style="fill:#1984ff;fill-opacity:0.78;"/><rect id="rect3763-1-4-0-3-1" x="11.488" y="12.648" width="1.946" height="1.946" style="fill:#1984ff;fill-opacity:0.78;"/><rect id="rect3763-1-4-0-3-6-2" x="13.434" y="10.702" width="1.946" height="1.946" style="fill:#1984ff;fill-opacity:0.78;"/><rect id="rect3763-1-4-0-3-0" x="14.732" y="12.648" width="1.946" height="1.946" style="fill:#1984ff;fill-opacity:0.78;"/><rect id="rect3763-1-4-0-3-6-5" x="16.678" y="10.702" width="1.946" height="1.946" style="fill:#1984ff;fill-opacity:0.78;"/><rect id="rect3763-1-4-0-3-69" x="8.244" y="15.892" width="1.946" height="1.946" style="fill:#1984ff;fill-opacity:0.78;"/><rect id="rect3763-1-4-0-3-6-7" x="10.19" y="13.946" width="1.946" height="1.946" style="fill:#1984ff;fill-opacity:0.78;"/><rect id="rect3763-1-4-0-3-8" x="8.244" y="9.405" width="1.946" height="1.946" style="fill:#1984ff;fill-opacity:0.78;"/><rect id="rect3763-1-4-0-3-6-52" x="10.19" y="7.458" width="1.946" height="1.946" style="fill:#1984ff;fill-opacity:0.78;"/></svg>