<?xml version="1.0" encoding="UTF-8" standalone="no"?><!DOCTYPE svg PUBLIC "-//W3C//DTD SVG 1.1//EN" "http://www.w3.org/Graphics/SVG/1.1/DTD/svg11.dtd"><svg width="100%" height="100%" viewBox="0 0 32 32" version="1.1" xmlns="http://www.w3.org/2000/svg" xmlns:xlink="http://www.w3.org/1999/xlink" xml:space="preserve" xmlns:serif="http://www.serif.com/" style="fill-rule:evenodd;clip-rule:evenodd;"><rect id="UV_Unwrap_24" x="0" y="0" width="32" height="32" style="fill:none;"/><rect id="rect3763-7-0-1" x="5.605" y="14.484" width="5.051" height="5.051" style="fill:#fff;stroke:#1986ff;stroke-width:1.01px;"/><path id="path3829" d="M17.417,9.218c2.439,-3.276 5.814,-3.382 6.878,1.73" style="fill:none;fill-rule:nonzero;stroke:#3c3c3c;stroke-width:1.01px;"/><path id="path7285" d="M24.862,12.664l2,-3.715c0.576,-0.064 -5.573,2.141 -5.573,2.141l3.573,1.574Z" style="fill:#3c3c3c;fill-rule:nonzero;"/><rect id="rect3763-7-0-1-1" x="10.656" y="14.484" width="5.051" height="5.051" style="fill:#fff;stroke:#1986ff;stroke-width:1.01px;"/><rect id="rect3763-7-0-1-7" x="15.708" y="14.484" width="5.051" height="5.051" style="fill:#fff;stroke:#1986ff;stroke-width:1.01px;"/><rect id="rect3763-7-0-1-19" x="20.759" y="14.484" width="5.051" height="5.051" style="fill:#fff;stroke:#1986ff;stroke-width:1.01px;"/><rect id="rect3763-7-0-1-1-3" x="10.656" y="19.535" width="5.051" height="5.051" style="fill:#fff;stroke:#1986ff;stroke-width:1.01px;"/><rect id="rect3763-7-0-1-1-2" x="10.656" y="9.433" width="5.051" height="5.051" style="fill:#fff;stroke:#1986ff;stroke-width:1.01px;"/><rect id="rect3763-1-4-0-3" x="5.1" y="17.01" width="3.031" height="3.031" style="fill:#1984ff;fill-opacity:0.78;"/><rect id="rect3763-1-4-0-3-6" x="8.131" y="13.979" width="3.031" height="3.031" style="fill:#1984ff;fill-opacity:0.78;"/><rect id="rect3763-1-4-0-3-9" x="10.151" y="17.01" width="3.031" height="3.031" style="fill:#1984ff;fill-opacity:0.78;"/><rect id="rect3763-1-4-0-3-6-0" x="13.182" y="13.979" width="3.031" height="3.031" style="fill:#1984ff;fill-opacity:0.78;"/><rect id="rect3763-1-4-0-3-1" x="15.203" y="17.01" width="3.031" height="3.031" style="fill:#1984ff;fill-opacity:0.78;"/><rect id="rect3763-1-4-0-3-6-2" x="18.233" y="13.979" width="3.031" height="3.031" style="fill:#1984ff;fill-opacity:0.78;"/><rect id="rect3763-1-4-0-3-0" x="20.254" y="17.01" width="3.031" height="3.031" style="fill:#1984ff;fill-opacity:0.78;"/><rect id="rect3763-1-4-0-3-6-5" x="23.285" y="13.979" width="3.031" height="3.031" style="fill:#1984ff;fill-opacity:0.78;"/><rect id="rect3763-1-4-0-3-69" x="10.151" y="22.061" width="3.031" height="3.031" style="fill:#1984ff;fill-opacity:0.78;"/><rect id="rect3763-1-4-0-3-6-7" x="13.182" y="19.03" width="3.031" height="3.031" style="fill:#1984ff;fill-opacity:0.78;"/><rect id="rect3763-1-4-0-3-8" x="10.151" y="11.958" width="3.031" height="3.031" style="fill:#1984ff;fill-opacity:0.78;"/><rect id="rect3763-1-4-0-3-6-52" x="13.182" y="8.928" width="3.031" height="3.031" style="fill:#1984ff;fill-opacity:0.78;"/></svg>